<?xml version="1.0" encoding="UTF-8" standalone="no"?>
<svg
        version="1.0"
        width="1644.8705pt"
        height="142.16553pt"
        viewBox="0 0 1644.8705 142.16553"
        preserveAspectRatio="xMidYMid"
        id="svg25"
        xmlns="http://www.w3.org/2000/svg">
    <defs
            id="defs25"/>
    <g
            transform="matrix(0.132247,0,0,-0.132247,-555.71954,321.75695)"
            fill="#000000"
            stroke="none"
            id="g25">
        <path
                d="m 7770,2348 v -86 l 173,-4 c 198,-6 232,-15 319,-83 43,-33 64,-60 90,-112 31,-63 33,-74 33,-168 0,-89 -3,-107 -29,-163 -37,-79 -114,-152 -194,-183 -48,-18 -83,-23 -224,-27 l -168,-5 v -78 -79 h 168 c 257,0 371,37 493,159 243,244 182,673 -118,829 -114,59 -173,71 -370,79 l -173,6 z"
                id="path3"/>
        <path
                d="m 4632,2409 c -217,-36 -392,-217 -424,-437 -53,-363 261,-661 623,-592 29,6 57,14 60,18 4,4 -23,34 -62,67 -61,54 -75,61 -126,67 -93,12 -155,43 -216,106 -70,74 -98,146 -98,253 0,144 55,253 161,317 67,40 109,52 181,52 192,0 348,-164 349,-366 0,-51 -33,-178 -49,-188 -4,-3 -45,28 -92,70 -46,41 -88,73 -93,71 -5,-2 -32,-29 -60,-61 l -50,-58 44,-36 c 24,-20 117,-101 207,-179 l 163,-142 57,60 57,60 -52,45 -52,45 25,38 c 52,77 69,146 70,271 0,134 -17,199 -75,289 -117,180 -324,267 -548,230 z"
                id="path4"/>
        <path
                d="m 5440,2088 c 0,-351 7,-417 49,-513 42,-96 162,-190 270,-211 l 31,-6 v 86 86 l -38,19 c -22,11 -53,36 -70,55 -57,65 -62,102 -62,478 v 338 h -90 -90 z"
                id="path5"/>
        <path
                d="m 6138,2058 c -3,-351 -4,-364 -25,-404 -24,-45 -82,-100 -119,-114 -23,-9 -24,-14 -24,-95 v -84 l 33,5 c 54,10 157,64 198,105 46,46 82,114 103,196 13,50 16,125 16,407 v 346 h -90 -89 z"
                id="path6"/>
        <path
                d="m 6950,2416 c 0,-13 223,-635 298,-828 l 87,-228 h 99 c 74,0 97,3 94,13 -3,6 -90,245 -193,530 l -189,517 h -98 c -54,0 -98,-2 -98,-4 z"
                id="path7"/>
        <path
                d="m 8872,2338 3,-83 280,-5 c 257,-5 283,-7 314,-25 55,-32 75,-67 79,-139 5,-74 -11,-112 -60,-150 -55,-40 -98,-46 -365,-46 h -253 v -265 -265 h 90 90 l 2,183 3,182 120,2 120,3 129,-185 129,-185 h 109 108 l -87,123 c -48,67 -111,155 -140,196 -29,41 -53,77 -53,80 0,4 22,14 49,24 67,23 143,94 172,159 32,72 34,210 3,278 -43,94 -113,149 -233,182 -56,15 -105,18 -339,18 h -273 z"
                id="path8"/>
        <path
                d="m 10321,2404 c -184,-49 -333,-214 -372,-412 -27,-140 13,-322 96,-434 67,-91 188,-166 313,-193 l 32,-7 v 84 83 l -47,17 c -106,39 -189,147 -213,279 -32,174 46,336 196,410 l 64,32 v 78 c 0,44 -3,79 -7,78 -5,0 -32,-7 -62,-15 z"
                id="path9"/>
        <path
                d="m 10550,2340 v -80 l 55,-25 c 119,-52 196,-165 211,-307 17,-166 -66,-319 -206,-382 l -60,-27 v -81 -80 l 33,6 c 53,10 138,47 195,84 254,166 298,570 87,809 -65,74 -182,140 -277,157 l -38,7 z"
                id="path10"/>
        <path
                d="m 11220,2335 v -85 l 398,2 397,3 3,83 3,82 h -401 -400 z"
                id="path11"/>
        <path
                d="m 12400,1890 v -530 h 370 370 v 80 80 h -280 -280 v 450 450 h -90 -90 z"
                id="path12"/>
        <path
                d="m 13520,2335 v -85 h 395 395 v 85 85 h -395 -395 z"
                id="path13"/>
        <path
                d="m 14670,2335 v -85 h 395 395 v 85 85 h -395 -395 z"
                id="path14"/>
        <path
                d="m 15780,2335 v -85 h 430 430 v 85 85 h -430 -430 z"
                id="path15"/>
        <path
                d="m 6682,1774 c -89,-220 -162,-403 -162,-407 0,-4 42,-7 94,-7 h 93 l 113,277 c 63,153 113,285 113,293 -1,8 -21,66 -45,129 l -44,114 z"
                id="path17"/>
        <path
                d="m 16120,1715 v -355 h 90 90 v 355 355 h -90 -90 z"
                id="path19"/>
        <path
                d="m 11220,1670 v -310 h 85 85 v 225 225 h 275 275 v 85 85 h -360 -360 z"
                id="path20"/>
        <path
                d="m 13520,1895 v -85 h 355 355 v 85 85 h -355 -355 z"
                id="path21"/>
        <path
                d="m 14670,1895 v -85 h 355 355 v 85 85 h -355 -355 z"
                id="path22"/>
        <path
                d="m 13520,1440 v -80 h 395 395 v 80 80 h -395 -395 z"
                id="path24"/>
        <path
                d="m 14670,1440 v -80 h 395 395 v 80 80 h -395 -395 z"
                id="path25"/>
    </g>
</svg>
